<svg
  width="258"
  height="84"
  viewBox="0 0 258 84"
  fill="none"
  xmlns="http://www.w3.org/2000/svg"
>
<path
    fill-rule="evenodd"
    clip-rule="evenodd"
    d="M241.804 42.8649C239.216 57.8841 230.62 73.7693 210.947 83.2644L210.42 82.1723C229.686 72.8737 238.076 57.3561 240.609 42.659C241.876 35.3031 241.675 28.1547 240.63 22.1037C239.583 16.0404 237.697 11.127 235.637 8.21482L236.627 7.5144C238.828 10.6263 240.76 15.7324 241.825 21.8973C242.892 28.0743 243.097 35.3625 241.804 42.8649Z"
    fill="#737373"
  />
<path
    d="M237.517 48.3836C237.517 48.3836 237.079 35.3425 222.337 36.7445C222.502 37.6345 224.114 48.7688 237.517 48.3836Z"
    fill="#737373"
  />
<path
    d="M239.677 37.7738C239.677 37.7738 239.222 27.2639 223.521 28.4051C223.698 29.1204 225.406 38.0944 239.677 37.7738Z"
    fill="#737373"
  />
<path
    d="M256.292 22.0872C256.292 22.0872 244.135 21.8054 244.165 36.6392C245.005 36.5219 255.483 35.521 256.292 22.0872Z"
    fill="#737373"
  />
<path
    d="M243.819 23.6704C243.819 23.6704 255.637 21.467 252.235 7.53357C251.451 7.81587 241.548 10.8829 243.819 23.6704Z"
    fill="#737373"
  />
<path
    d="M240.067 16.2009C240.067 16.2009 244.776 5.13833 231.287 0.257812C231.086 1.06884 228.153 11.0237 240.067 16.2009Z"
    fill="#737373"
  />
<path
    d="M223.549 16.7041C223.549 16.7041 226.2 28.4268 239.995 24.5033C239.684 23.7281 236.241 13.9384 223.549 16.7041Z"
    fill="#737373"
  />
<path
    d="M247.463 69.6243C247.463 69.6243 236.058 61.7509 229.613 73.0526C230.46 73.4928 240.845 79.3398 247.463 69.6243Z"
    fill="#737373"
  />
<path
    d="M217.301 53.8629C217.301 53.8629 230.128 59.1093 224.187 70.684C223.356 70.2155 212.783 64.7149 217.301 53.8629Z"
    fill="#737373"
  />
<path
    d="M257.319 38.2002C257.319 38.2002 244.723 34.7934 241.74 49.2986C242.64 49.4015 253.755 51.124 257.319 38.2002Z"
    fill="#737373"
  />
<path
    d="M257.652 55.8461C257.652 55.8461 245.429 47.743 236.889 62.4325C236.889 62.4325 246.982 67.6575 257.652 55.8461Z"
    fill="#737373"
  />
<path
    d="M221.147 44.3025C221.147 44.3025 234.851 46.0341 231.606 61.851C231.606 61.851 221.213 59.3686 221.147 44.3025Z"
    fill="#737373"
  />
<path
    d="M110.677 21.2653H114.308V31.0583H116.787V21.2653H120.418V19.1979H110.677V21.2653ZM132.395 25.1281C132.395 21.248 129.986 19.0357 126.842 19.0357C123.68 19.0357 121.288 21.248 121.288 25.1281C121.288 28.9909 123.68 31.2205 126.842 31.2205C129.986 31.2205 132.395 29.0082 132.395 25.1281ZM129.853 25.1281C129.853 27.6415 128.66 29.0025 126.842 29.0025C125.017 29.0025 123.83 27.6415 123.83 25.1281C123.83 22.6147 125.017 21.2538 126.842 21.2538C128.66 21.2538 129.853 22.6147 129.853 25.1281ZM134.253 31.0583H136.761V27.213H138.869C141.596 27.213 143.183 25.5856 143.183 23.217C143.183 20.86 141.625 19.1979 138.932 19.1979H134.253V31.0583ZM136.761 25.2034V21.248H138.452C139.899 21.248 140.6 22.0356 140.6 23.217C140.6 24.3926 139.899 25.2034 138.463 25.2034H136.761ZM80.3038 51.0583C83.9176 51.0583 86.1067 48.8229 86.1067 45.1165C86.1067 41.4217 83.9176 39.1979 80.3386 39.1979H76.0994V51.0583H80.3038ZM78.607 48.9098V41.3464H80.2054C82.4292 41.3464 83.6049 42.4815 83.6049 45.1165C83.6049 47.7631 82.4292 48.9098 80.1996 48.9098H78.607ZM87.9642 51.0583H95.9793V48.9909H90.4718V46.159H95.545V44.0915H90.4718V41.2653H95.9562V39.1979H87.9642V51.0583ZM100.093 39.1979H97.307L101.401 51.0583H104.633L108.722 39.1979H105.942L103.069 48.2091H102.959L100.093 39.1979ZM110.149 51.0583H118.164V48.9909H112.657V46.159H117.73V44.0915H112.657V41.2653H118.141V39.1979H110.149V51.0583ZM120.135 51.0583H127.727V48.9909H122.642V39.1979H120.135V51.0583ZM139.825 45.1281C139.825 41.248 137.416 39.0357 134.271 39.0357C131.109 39.0357 128.717 41.248 128.717 45.1281C128.717 48.9909 131.109 51.2205 134.271 51.2205C137.416 51.2205 139.825 49.0082 139.825 45.1281ZM137.283 45.1281C137.283 47.6415 136.09 49.0025 134.271 49.0025C132.447 49.0025 131.26 47.6415 131.26 45.1281C131.26 42.6147 132.447 41.2538 134.271 41.2538C136.09 41.2538 137.283 42.6147 137.283 45.1281ZM141.682 51.0583H144.19V47.213H146.298C149.026 47.213 150.613 45.5856 150.613 43.217C150.613 40.86 149.055 39.1979 146.362 39.1979H141.682V51.0583ZM144.19 45.2034V41.248H145.881C147.329 41.248 148.03 42.0356 148.03 43.217C148.03 44.3926 147.329 45.2034 145.893 45.2034H144.19ZM152.241 51.0583H160.256V48.9909H154.749V46.159H159.822V44.0915H154.749V41.2653H160.233V39.1979H152.241V51.0583ZM162.227 51.0583H164.735V46.8539H166.565L168.812 51.0583H171.58L169.061 46.4485C170.41 45.8694 171.157 44.6938 171.157 43.0722C171.157 40.7152 169.599 39.1979 166.906 39.1979H162.227V51.0583ZM164.735 44.8385V41.248H166.426C167.873 41.248 168.574 41.8908 168.574 43.0722C168.574 44.2478 167.873 44.8385 166.437 44.8385H164.735ZM179.363 42.6089H181.767C181.732 40.4951 179.994 39.0357 177.354 39.0357C174.753 39.0357 172.848 40.4719 172.86 42.6263C172.854 44.3752 174.087 45.3771 176.091 45.8578L177.383 46.1821C178.674 46.4948 179.392 46.8655 179.398 47.6647C179.392 48.5334 178.57 49.1241 177.296 49.1241C175.993 49.1241 175.055 48.5218 174.973 47.3346H172.547C172.611 49.9001 174.446 51.2263 177.325 51.2263C180.22 51.2263 181.923 49.8422 181.929 47.6705C181.923 45.6957 180.435 44.6474 178.373 44.1841L177.307 43.9293C176.276 43.6919 175.414 43.3097 175.431 42.4583C175.431 41.6939 176.109 41.1321 177.336 41.1321C178.535 41.1321 179.271 41.6765 179.363 42.6089ZM92.3895 65.1281C92.3895 61.248 89.9803 59.0357 86.8357 59.0357C83.6736 59.0357 81.2818 61.248 81.2818 65.1281C81.2818 68.9909 83.6736 71.2205 86.8357 71.2205C89.9803 71.2205 92.3895 69.0082 92.3895 65.1281ZM89.8471 65.1281C89.8471 67.6415 88.6541 69.0025 86.8357 69.0025C85.0114 69.0025 83.8242 67.6415 83.8242 65.1281C83.8242 62.6147 85.0114 61.2538 86.8357 61.2538C88.6541 61.2538 89.8471 62.6147 89.8471 65.1281ZM104.167 59.1979H101.671V66.657H101.567L96.4477 59.1979H94.247V71.0583H96.7546V63.5934H96.8415L102.001 71.0583H104.167V59.1979ZM120.478 63.3502C120.148 60.6109 118.075 59.0357 115.33 59.0357C112.197 59.0357 109.805 61.248 109.805 65.1281C109.805 68.9967 112.156 71.2205 115.33 71.2205C118.37 71.2205 120.206 69.1994 120.478 67.0161L117.942 67.0045C117.704 68.2728 116.708 69.0025 115.371 69.0025C113.57 69.0025 112.348 67.6647 112.348 65.1281C112.348 62.661 113.552 61.2538 115.388 61.2538C116.761 61.2538 117.751 62.0472 117.942 63.3502H120.478ZM122.277 71.0583H129.869V68.9909H124.784V59.1979H122.277V71.0583ZM138.856 59.1979V66.686C138.856 68.0411 137.906 69.0198 136.446 69.0198C134.993 69.0198 134.037 68.0411 134.037 66.686V59.1979H131.53V66.9002C131.53 69.4947 133.487 71.2263 136.446 71.2263C139.394 71.2263 141.363 69.4947 141.363 66.9002V59.1979H138.856ZM142.975 61.2653H146.606V71.0583H149.084V61.2653H152.715V59.1979H142.975V61.2653ZM164.259 63.3502C163.929 60.6109 161.856 59.0357 159.11 59.0357C155.977 59.0357 153.586 61.248 153.586 65.1281C153.586 68.9967 155.937 71.2205 159.11 71.2205C162.151 71.2205 163.987 69.1994 164.259 67.0161L161.722 67.0045C161.485 68.2728 160.489 69.0025 159.151 69.0025C157.35 69.0025 156.128 67.6647 156.128 65.1281C156.128 62.661 157.333 61.2538 159.168 61.2538C160.541 61.2538 161.531 62.0472 161.722 63.3502H164.259ZM166.057 71.0583H168.565V66.159H173.655V71.0583H176.157V59.1979H173.655V64.0915H168.565V59.1979H166.057V71.0583Z"
    fill="#737373"
  />
<path
    fill-rule="evenodd"
    clip-rule="evenodd"
    d="M15.8493 42.8649C18.4372 57.8841 27.0328 73.7693 46.706 83.2644L47.2331 82.1723C27.9672 72.8737 19.5768 57.3561 17.0443 42.659C15.7769 35.3031 15.9782 28.1547 17.0233 22.1037C18.0704 16.0404 19.956 11.127 22.0164 8.21482L21.0265 7.5144C18.8248 10.6263 16.893 15.7324 15.8283 21.8973C14.7615 28.0743 14.5566 35.3625 15.8493 42.8649Z"
    fill="#737373"
  />
<path
    d="M20.1367 48.3836C20.1367 48.3836 20.5745 35.3425 35.3165 36.7445C35.1514 37.6345 33.539 48.7688 20.1367 48.3836Z"
    fill="#737373"
  />
<path
    d="M17.9757 37.7738C17.9757 37.7738 18.4302 27.2639 34.1316 28.4051C33.9546 29.1204 32.2464 38.0944 17.9757 37.7738Z"
    fill="#737373"
  />
<path
    d="M1.36106 22.0872C1.36106 22.0872 13.5184 21.8054 13.488 36.6392C12.648 36.5219 2.17062 35.521 1.36106 22.0872Z"
    fill="#737373"
  />
<path
    d="M13.8349 23.6704C13.8349 23.6704 2.0164 21.467 5.41841 7.53357C6.20312 7.81587 16.1053 10.8829 13.8349 23.6704Z"
    fill="#737373"
  />
<path
    d="M17.5859 16.2009C17.5859 16.2009 12.8776 5.13833 26.366 0.257812C26.567 1.06884 29.5001 11.0237 17.5859 16.2009Z"
    fill="#737373"
  />
<path
    d="M34.1044 16.7041C34.1044 16.7041 31.4536 28.4268 17.6589 24.5033C17.9699 23.7281 21.4126 13.9384 34.1044 16.7041Z"
    fill="#737373"
  />
<path
    d="M10.1906 69.6243C10.1906 69.6243 21.5952 61.7509 28.0404 73.0526C27.1934 73.4928 16.808 79.3398 10.1906 69.6243Z"
    fill="#737373"
  />
<path
    d="M40.3514 53.8629C40.3514 53.8629 27.5245 59.1093 33.4654 70.684C34.2969 70.2155 44.87 64.7149 40.3514 53.8629Z"
    fill="#737373"
  />
<path
    d="M0.333899 38.1992C0.333899 38.1992 12.9299 34.7924 15.9133 49.2976C15.0137 49.4005 3.89859 51.123 0.333899 38.1992Z"
    fill="#737373"
  />
<path
    d="M3.8147e-06 55.8461C3.8147e-06 55.8461 12.2228 47.743 20.7637 62.4325C20.7637 62.4325 10.6702 67.6575 3.8147e-06 55.8461Z"
    fill="#737373"
  />
<path
    d="M36.5055 44.3025C36.5055 44.3025 22.8017 46.0341 26.0462 61.851C26.0462 61.851 36.4389 59.3686 36.5055 44.3025Z"
    fill="#737373"
  />
</svg>
