<svg xmlns:xlink="http://www.w3.org/1999/xlink" viewBox="0 0 237 40" fill="none" xmlns="http://www.w3.org/2000/svg" class="css-henm9r" width="237"  height="40" ><g clip-path="url(#artifact-logo-with-text-light_svg__a)" fill="none"><path d="M36.87 0H0v28.437h36.87V0Z" fill="#FFFFFF"></path><path d="M16.844 25.252V3.179H3.186v22.073h13.658Z" fill="#FFCB05"></path><path d="M33.691 25.258V3.185H20.034v22.073H33.69Z" fill="#1A2352"></path><path d="m94.501 3.795-.831 7.848h.141c.536-4.626 2.772-7.694 7.799-7.694v15.765c0 3.585-.147 5.384-3.696 5.384v.16h13.738v-.135c-3.555 0-3.696-1.8-3.696-5.385V3.95c5.027 0 7.263 3.08 7.799 7.694h.142l-.851-7.848H94.501Zm-3.24 15.746c-1.454-3.142-3.234-5.107-9.24-5.107v-.043c3.646-.154 9.659-1.121 9.659-5.323 0-5.15-7.146-5.273-10.307-5.273H70.186v.136c3.185 0 3.185 1.675 3.185 5.384v10.399c0 3.246 0 5.329-2.366 5.329-1.848 0-2.797-2.046-4.54-5.668L58.647 3.179l-7.084 14.385c-2.206 4.472-4.313 7.559-6.838 7.559v.135h8.957v-.135c-3.696 0-3.937-3.383-2.008-7.393h7.392l.801 1.713c1.503 3.222 2.089 5.661-1.133 5.661v.154h24.383v-.135c-3.253 0-3.4-1.8-3.4-5.385v-5.304h.886c2.742 0 3.019 4.17 3.697 6.253 1.145 3.407 2.605 4.88 6.376 4.88a20.432 20.432 0 0 0 4.873-.71v-.135c-1.467.154-2.28-.844-4.288-5.18Zm-39.513-1.977 3.696-7.485 3.511 7.485h-7.207Zm27.925-3.284V3.95h.9c3.326 0 4.343 2.267 4.343 5.12 0 3.616-1.319 5.211-4.356 5.211h-.887Zm46.191 5.434v-10.4c0-3.695 0-5.383 3.191-5.383h2.163v-.136h-14.859v.136c3.191 0 3.191 1.675 3.191 5.384v10.399c0 3.585 0 5.384-3.191 5.384v.16h14.859v-.135h-2.163c-3.191 0-3.191-1.8-3.191-5.41Zm73.643-15.919-.832 7.848h.142c.536-4.626 2.772-7.694 7.799-7.694v15.765c0 3.585-.148 5.384-3.696 5.384v.16h13.737v-.135c-3.554 0-3.696-1.8-3.696-5.385V3.95c5.027 0 7.263 3.08 7.805 7.694h.136l-.85-7.848h-20.545Zm26.225 7.51c0-1.232 1.195-2.267 3.376-2.267 2.359 0 5.058 1.41 5.883 5.335h.123l-.308-5.428-1.848.524a14.235 14.235 0 0 0-3.832-.585c-3.776 0-7.854 1.41-7.854 5.18 0 6.044 11.132 5.674 11.132 9.02 0 1.712-1.99 2.267-3.955 2.267-2.206 0-6.222-1.196-7.054-6.469h-.123l.338 6.56 2.181-.553c1.529.357 3.089.563 4.658.616 4.355 0 8.218-1.658 8.218-5.582-.019-6.043-10.935-5.138-10.935-8.618Zm-72.805 7.971.524-9.9h-.142c-.197 3.432-2.372 4.843-6.24 4.843V3.949h2.464c4.349 0 7.528 2.526 8.045 7.232h.13l-.77-7.392h-21.562v.135h2.156c3.191 0 3.191 1.676 3.191 5.385v10.405c0 3.585 0 5.384-3.191 5.384h-2.156v.16h15.401v-.135c-3.56 0-3.696-1.8-3.696-5.385v-5.365c3.869 0 5.877 1.657 5.723 4.928l.123-.025Zm21.741.123L166.85 3.18l-7.085 14.385c-2.205 4.472-4.312 7.559-6.838 7.559v.135h8.951v-.135c-3.696 0-3.93-3.383-2.002-7.393h7.393l.801 1.713c1.503 3.222 2.082 5.661-1.134 5.661v.154h12.937v-.135c-2.353 0-3.271-1.713-5.205-5.724Zm-14.705-1.848 3.696-7.485 3.505 7.485h-7.201Zm29.2-13.855c5.076 0 7.042 4.929 7.393 8.496h.135l-.486-8.588-2.329.616a18.402 18.402 0 0 0-4.713-.702c-6.955 0-12.678 4.54-12.678 10.978 0 6.437 5.723 10.978 12.678 10.978a18.216 18.216 0 0 0 4.713-.709l2.329.616.486-8.587h-.135c-.351 3.542-2.317 8.495-7.393 8.495s-5.686-6.198-5.686-10.824c0-4.627.616-10.769 5.686-10.769ZM135.408 32.57l1.01-.117.136.093v2.113c.151-.142.323-.259.511-.345a1.6 1.6 0 0 1 .672-.136 1.423 1.423 0 0 1 1.306.82c.151.332.222.695.209 1.06a2.42 2.42 0 0 1-.24 1.084 1.916 1.916 0 0 1-.69.776c-.314.19-.674.288-1.041.283a3.527 3.527 0 0 1-.82-.092 1.236 1.236 0 0 1-.474-.173v-5.051l-.616-.068.037-.247Zm1.565 2.169c-.153.078-.29.182-.407.308v2.563a.395.395 0 0 0 .271.178c.165.044.335.065.505.062a1.164 1.164 0 0 0 .955-.437c.264-.378.39-.835.358-1.294a1.713 1.713 0 0 0-.321-1.14 1.019 1.019 0 0 0-.813-.376 1.126 1.126 0 0 0-.548.136ZM140.212 39.84a.497.497 0 0 1-.142 0v-.518a.874.874 0 0 0 .352.044.905.905 0 0 0 .394-.087c.149-.084.274-.205.363-.35.156-.24.28-.5.37-.77h-.308l-1.325-3.47-.326-.092v-.283h1.534v.283l-.561.08.727 2.126.364 1.127.345-1.133.653-2.12-.487-.08v-.283h1.331v.283l-.364.08a96.965 96.965 0 0 1-.819 2.465c-.204.566-.327.967-.382 1.096a9.31 9.31 0 0 1-.431.943c-.106.2-.258.37-.444.499a1.126 1.126 0 0 1-.647.178l-.197-.018ZM146.558 38.146l-.665-.167a2.108 2.108 0 0 0-.327-.08l.068-1.281h.561l.148.893a.759.759 0 0 0 .326.173c.171.056.35.084.53.08.249.018.496-.054.696-.204a.737.737 0 0 0 .234-.573.644.644 0 0 0-.142-.418 1.171 1.171 0 0 0-.381-.32 6.668 6.668 0 0 0-.666-.333 3.426 3.426 0 0 1-.955-.616 1.327 1.327 0 0 1-.375-.992 1.259 1.259 0 0 1 .203-.703c.152-.223.366-.396.616-.499.307-.131.639-.194.973-.184.207-.002.413.014.616.049.173.03.358.074.561.13.088.028.179.049.271.06l-.043 1.233h-.555l-.141-.85a.676.676 0 0 0-.253-.123 1.421 1.421 0 0 0-.413-.056.907.907 0 0 0-.616.191.63.63 0 0 0-.164.228.625.625 0 0 0-.045.277c-.005.162.05.32.154.444.104.129.232.237.376.32.148.086.382.203.702.364.229.108.451.229.665.363.188.126.351.284.481.468.133.2.202.437.197.678.001.255-.065.505-.191.727-.142.25-.357.453-.616.579a2.427 2.427 0 0 1-1.152.191 3.701 3.701 0 0 1-.678-.05ZM149.922 35.115c.158-.295.4-.535.696-.69.291-.159.617-.24.949-.234a1.722 1.722 0 0 1 1.349.536c.333.41.502.931.474 1.46.012.39-.077.776-.259 1.12a1.68 1.68 0 0 1-.696.685 1.988 1.988 0 0 1-.955.228 1.71 1.71 0 0 1-1.343-.536 2.468 2.468 0 0 1-.215-2.57Zm2.396 1.14a3.072 3.072 0 0 0-.185-1.202.612.612 0 0 0-.616-.413c-.536 0-.801.505-.801 1.51-.026.42.041.84.198 1.232a.648.648 0 0 0 .616.413c.529-.038.788-.543.788-1.553v.012ZM156.81 38.103a.358.358 0 0 1-.105-.29v-.19c-.148.169-.328.307-.53.406a1.468 1.468 0 0 1-.678.178 1.16 1.16 0 0 1-.948-.345 1.762 1.762 0 0 1-.284-1.133v-1.953l-.351-.099v-.394l1.183-.092.135.098v2.464c-.019.244.026.488.13.709a.489.489 0 0 0 .462.197c.285-.006.557-.118.764-.314v-2.57l-.468-.104v-.388l1.232-.092.166.098v3.413h.388v.394l-.259.056a2.71 2.71 0 0 1-.542.05.485.485 0 0 1-.295-.1ZM158.94 37.992a.869.869 0 0 1-.203-.616v-2.57h-.413v-.356l.197-.074.222-.087a.69.69 0 0 0 .203-.314 7 7 0 0 0 .228-.72h.555v1.022h1.059v.53h-1.047v1.953c-.009.18-.009.361 0 .542a.27.27 0 0 0 .093.21.447.447 0 0 0 .24.042c.122 0 .244-.013.363-.037.106-.019.209-.05.308-.092l.136.388a1.937 1.937 0 0 1-.573.259 2.36 2.36 0 0 1-.727.117.907.907 0 0 1-.641-.197ZM161.584 33.063l-.529-.092v-.376l1.293-.148.179.13v1.546l-.043.616c.175-.15.372-.273.585-.363a1.85 1.85 0 0 1 .776-.167c.24-.012.477.046.684.166a.865.865 0 0 1 .339.493c.069.29.1.589.092.887v1.91l.444.062v.413h-1.817v-.413l.4-.062v-1.934a2.636 2.636 0 0 0-.049-.56.482.482 0 0 0-.179-.297.616.616 0 0 0-.376-.098 1.094 1.094 0 0 0-.443.098 1.743 1.743 0 0 0-.394.24v2.527l.418.061v.413h-1.792v-.413l.388-.055.024-4.584ZM168.047 37.505a2.805 2.805 0 0 1-.616-1.928 2.84 2.84 0 0 1 .333-1.405c.207-.388.521-.709.905-.924.398-.22.846-.332 1.3-.326.206-.002.412.01.616.037l.671.104.321.05-.074 1.423h-.616l-.216-.986a.552.552 0 0 0-.265-.13 1.998 1.998 0 0 0-.474-.049 1.1 1.1 0 0 0-.949.549 2.864 2.864 0 0 0-.357 1.577c-.024.562.093 1.12.339 1.626a1.08 1.08 0 0 0 .992.616 1.56 1.56 0 0 0 .48-.061.766.766 0 0 0 .29-.173l.308-.708.579.055-.136 1.072a1.48 1.48 0 0 0-.289.05l-.179.049a5.03 5.03 0 0 1-.517.116 3.073 3.073 0 0 1-.586.05 2.277 2.277 0 0 1-1.86-.684ZM172.413 33.063l-.53-.092v-.376l1.287-.148.179.13v1.546l-.049.616a2.33 2.33 0 0 1 .585-.363 1.92 1.92 0 0 1 .782-.167c.238-.014.474.044.678.166a.808.808 0 0 1 .339.493c.075.29.108.589.098.887v1.91l.444.062v.413h-1.848v-.413l.406-.062v-1.934a2.572 2.572 0 0 0-.049-.56.503.503 0 0 0-.179-.297.615.615 0 0 0-.375-.098 1.07 1.07 0 0 0-.444.098 1.966 1.966 0 0 0-.4.24v2.527l.425.061v.413h-1.793v-.413l.388-.055.056-4.584ZM177.181 34.936l-.493-.136v-.461l1.269-.154.197.141v3.333l.462.055v.413h-1.934v-.413l.486-.061.013-2.717Zm-.031-1.435a.52.52 0 0 1-.142-.376.62.62 0 0 1 .166-.438.582.582 0 0 1 .444-.172.55.55 0 0 1 .419.136.49.49 0 0 1 .148.37.606.606 0 0 1-.167.443.613.613 0 0 1-.462.166.565.565 0 0 1-.406-.13ZM179.51 34.936l-.444-.13v-.474l1.152-.147.173.141v.431c.182-.164.39-.297.616-.394.247-.108.513-.165.782-.166.231-.01.459.046.659.16a.824.824 0 0 1 .345.487c.078.293.113.596.105.9v1.915l.419.056v.412h-1.786v-.413l.375-.055v-1.928a2.573 2.573 0 0 0-.049-.56.475.475 0 0 0-.179-.303.613.613 0 0 0-.363-.092c-.3.024-.585.142-.813.339v2.526l.413.061v.413h-1.805v-.413l.4-.061v-2.705ZM184.396 36.1a3.7 3.7 0 0 1 1.639-.326v-.16a1.26 1.26 0 0 0-.062-.444.429.429 0 0 0-.216-.24.956.956 0 0 0-.449-.08 2.043 2.043 0 0 0-.616.086 5.028 5.028 0 0 0-.561.228l-.216-.444c.107-.087.225-.16.351-.215.187-.096.383-.17.586-.222.227-.062.461-.093.696-.092.286-.012.571.036.838.141a.819.819 0 0 1 .431.444c.098.26.144.536.135.813v2.126h.37v.388a3.88 3.88 0 0 1-.394.067 3.21 3.21 0 0 1-.45.037.486.486 0 0 1-.314-.074c-.056-.043-.08-.135-.08-.283v-.185c-.142.15-.306.277-.487.376a1.384 1.384 0 0 1-1.232 0 1.048 1.048 0 0 1-.425-.394 1.13 1.13 0 0 1-.16-.616 1.007 1.007 0 0 1 .616-.93Zm1.312 1.442c.118-.054.228-.124.327-.21v-1.14a1.634 1.634 0 0 0-.931.216.613.613 0 0 0-.308.543.726.726 0 0 0 .154.505.541.541 0 0 0 .425.172.742.742 0 0 0 .333-.086ZM190.187 33.5l-.752-.092v-.43h2.156l.826 2.98.191.814.166-.813.819-2.982h2.144v.431l-.758.093.555 4.133.56.08v.413h-2.211v-.413l.616-.067-.302-3.037-.142-1.27-.252 1.066-.98 3.506h-.733l-1.023-3.327-.357-1.232-.105 1.269-.246 3.025.696.068v.412h-1.928v-.413l.585-.067.475-4.146ZM196.625 35.115a1.7 1.7 0 0 1 .696-.69c.291-.158.617-.239.949-.234a1.697 1.697 0 0 1 1.349.536c.333.41.502.931.474 1.46.012.39-.077.776-.259 1.12a1.65 1.65 0 0 1-.696.685 1.963 1.963 0 0 1-.949.228 1.715 1.715 0 0 1-1.349-.536 2.157 2.157 0 0 1-.474-1.46 2.207 2.207 0 0 1 .259-1.11Zm2.402 1.14a2.931 2.931 0 0 0-.191-1.202.617.617 0 0 0-.616-.413c-.536 0-.801.505-.801 1.51-.023.42.044.84.198 1.232a.647.647 0 0 0 .616.413c.529-.038.794-.543.794-1.553v.012ZM200.715 37.72l.462-.055v-2.729l-.444-.13v-.474l1.072-.147.179.141V35.06c.053-.127.13-.242.228-.338a1.78 1.78 0 0 1 .45-.364c.187-.106.4-.16.616-.154a.665.665 0 0 1 .258.043v1.035a.875.875 0 0 0-.505-.142 1.456 1.456 0 0 0-.881.271v2.274l.807.061v.407h-2.242v-.431ZM204.362 34.936l-.45-.13v-.474l1.152-.147.173.141v.431c.182-.164.39-.298.616-.394.246-.108.513-.165.782-.166.233-.01.463.045.665.16.168.117.288.29.339.487.081.292.116.596.105.9v1.915l.425.056v.412h-1.793v-.413l.376-.055v-1.928a2.247 2.247 0 0 0-.049-.56.502.502 0 0 0-.173-.303.613.613 0 0 0-.363-.092 1.434 1.434 0 0 0-.85.339v2.526l.419.061v.413h-1.812v-.413l.401-.061.037-2.705ZM209.147 34.936l-.492-.135v-.462l1.269-.154.197.141v3.333l.462.056v.412h-1.935v-.413l.487-.061.012-2.717Zm-.03-1.435a.524.524 0 0 1-.142-.376.616.616 0 0 1 .166-.437.58.58 0 0 1 .444-.173.547.547 0 0 1 .419.148.502.502 0 0 1 .148.37.625.625 0 0 1-.167.443.613.613 0 0 1-.462.166.551.551 0 0 1-.406-.141ZM211.477 34.936l-.444-.13v-.474l1.152-.147.173.141v.431c.182-.164.39-.298.616-.394.249-.108.517-.164.788-.166.231-.01.459.046.659.16a.824.824 0 0 1 .345.487c.078.293.113.596.105.9v1.915l.419.056v.412h-1.786v-.413l.375-.055v-1.928a2.573 2.573 0 0 0-.049-.56.475.475 0 0 0-.179-.303.613.613 0 0 0-.363-.092 1.415 1.415 0 0 0-.844.339v2.526l.413.061v.413h-1.805v-.413l.4-.061.025-2.705ZM216.134 39.71a.904.904 0 0 1-.413-.788.882.882 0 0 1 .191-.542c.119-.16.276-.29.456-.376a.617.617 0 0 1-.314-.616.76.76 0 0 1 .178-.425c.104-.142.242-.257.401-.333a1.05 1.05 0 0 1-.573-.443 1.307 1.307 0 0 1-.185-.709 1.031 1.031 0 0 1 .234-.684c.161-.204.373-.362.616-.455.271-.108.559-.163.85-.16.425-.033.848.078 1.202.314a.833.833 0 0 1 .308-.222.94.94 0 0 1 .443-.105h.24v.752h-.708c.067.149.1.31.099.474a1.242 1.242 0 0 1-.444 1.01c-.352.27-.79.403-1.232.376a2.719 2.719 0 0 1-.548-.05.787.787 0 0 0-.105.192.499.499 0 0 0-.037.178.308.308 0 0 0 .16.309c.187.07.386.099.585.086h.74c.948 0 1.417.339 1.417 1.022.003.286-.106.563-.302.77a1.964 1.964 0 0 1-.814.53c-.345.125-.71.187-1.078.185-.474.04-.95-.06-1.367-.29Zm2.205-.4a.675.675 0 0 0 .321-.616.544.544 0 0 0-.161-.431.88.88 0 0 0-.554-.13h-.758a2.55 2.55 0 0 1-.32 0 .97.97 0 0 0-.185.616.767.767 0 0 0 .21.586.96.96 0 0 0 .69.203c.269.002.533-.077.757-.228Zm-.166-3.844a1.106 1.106 0 0 0-.16-.66.612.612 0 0 0-.499-.215.614.614 0 0 0-.505.216.972.972 0 0 0-.173.616c0 .616.228.905.69.905.462 0 .647-.27.647-.862ZM222.256 33.5l-.523-.092v-.43h2.23c.388-.015.775.046 1.139.178.258.093.475.271.617.505.124.261.183.549.172.838a1.712 1.712 0 0 1-.542 1.355 2.18 2.18 0 0 1-1.509.487h-.549v1.367l.931.068v.413h-2.495v-.413l.548-.068-.019-4.207Zm1.553 2.366a.945.945 0 0 0 .745-.32c.217-.305.323-.674.302-1.047a1.186 1.186 0 0 0-.253-.85 1.026 1.026 0 0 0-.77-.265 2.997 2.997 0 0 0-.4.03h-.142v2.465c.173.011.346.007.518-.013ZM226.576 35.115c.162-.294.406-.534.702-.69.291-.159.618-.24.949-.234a1.72 1.72 0 0 1 1.349.536c.334.41.503.931.474 1.46.013.39-.078.777-.264 1.12-.156.293-.397.532-.69.685a2.005 2.005 0 0 1-.955.228 1.705 1.705 0 0 1-1.343-.536 2.133 2.133 0 0 1-.481-1.46 2.207 2.207 0 0 1 .259-1.11Zm2.403 1.14a3.09 3.09 0 0 0-.185-1.202.617.617 0 0 0-.616-.413c-.536 0-.807.505-.807 1.51-.025.42.044.841.203 1.232a.649.649 0 0 0 .616.413c.53-.038.789-.543.789-1.553v.012ZM231.444 37.579c.067.076.155.13.253.154.128.049.263.074.4.074a.74.74 0 0 0 .487-.136.455.455 0 0 0 .159-.372.467.467 0 0 0-.196-.355 4.877 4.877 0 0 0-.678-.35l-.197-.08a1.846 1.846 0 0 1-.714-.488 1.121 1.121 0 0 1-.234-.733.907.907 0 0 1 .184-.56 1.23 1.23 0 0 1 .53-.382 2.06 2.06 0 0 1 .813-.16c.186-.004.372.01.555.043.166.026.331.063.493.11.068.026.138.044.209.056v.906h-.548l-.16-.524a.365.365 0 0 0-.191-.123.897.897 0 0 0-.333-.056.765.765 0 0 0-.45.117.388.388 0 0 0-.172.34.472.472 0 0 0 .117.32c.073.081.16.148.259.197.092.05.264.123.511.228.211.09.417.193.616.308.162.093.301.221.407.376a.953.953 0 0 1 .166.566 1.024 1.024 0 0 1-.407.832 1.848 1.848 0 0 1-1.152.32c-.207 0-.413-.02-.616-.061l-.653-.167-.148-.049v-.918h.573l.117.567ZM234.781 37.992a.873.873 0 0 1-.203-.616v-2.57h-.48v-.356l.203-.074.222-.087a.7.7 0 0 0 .203-.314c.037-.092.117-.333.228-.72h.554v1.022h1.06v.53h-1.053v1.953c-.011.18-.011.361 0 .542a.29.29 0 0 0 .086.21c.077.035.162.05.246.042.12 0 .24-.012.358-.037.107-.019.213-.05.314-.092l.129.388a1.885 1.885 0 0 1-.567.259c-.234.077-.48.116-.727.117a.906.906 0 0 1-.573-.197Z" fill="#001246"></path><path d="M133.314 12.167a2.518 2.518 0 0 0-2.526 2.501 2.526 2.526 0 1 0 5.046 0 2.467 2.467 0 0 0-2.52-2.501Z" fill="#C79A2D"></path></g><defs><clipPath id="artifact-logo-with-text-light_svg__a"><path fill="#fff" d="M0 0h236.723v40H0z"></path></clipPath></defs></svg>